<?xml version="1.0" encoding="UTF-8"?>
<svg xmlns="http://www.w3.org/2000/svg" xmlns:xlink="http://www.w3.org/1999/xlink" width="810pt" height="809.999993pt" viewBox="0 0 810 809.999993" version="1.2">
<defs>
<clipPath id="clip1">
  <path d="M 11.535156 21.109375 L 795.90625 21.109375 L 795.90625 786.765625 L 11.535156 786.765625 Z M 11.535156 21.109375 "/>
</clipPath>
</defs>
<g id="surface1">
<g clip-path="url(#clip1)" clip-rule="nonzero">
<path style=" stroke:none;fill-rule:nonzero;fill:rgb(18.818665%,76.858521%,54.899597%);fill-opacity:1;" d="M 648.789062 773.691406 C 550.210938 753.839844 206.71875 656.9375 128.792969 393.847656 C 68.089844 188.933594 11.535156 21.109375 11.535156 21.109375 C 11.535156 21.109375 356.621094 92.777344 477.210938 298.230469 C 597.808594 503.691406 607.1875 723.425781 665.097656 754.921875 C 698.566406 773.117188 781.441406 769.023438 781.441406 769.023438 L 795.914062 784.878906 C 795.914062 784.878906 747.363281 793.554688 648.789062 773.691406 "/>
</g>
<path style=" stroke:none;fill-rule:nonzero;fill:rgb(21.179199%,20.779419%,18.818665%);fill-opacity:1;" d="M 383.664062 280.589844 C 383.628906 280.453125 383.574219 280.316406 383.539062 280.199219 C 383.574219 280.316406 383.617188 280.441406 383.664062 280.589844 Z M 383.484375 279.558594 C 383.664062 279.113281 384.390625 278.667969 384.308594 278.6875 L 382.101562 279.421875 C 382.027344 279.449219 382.863281 279.367188 383.253906 279.640625 C 383.402344 279.761719 383.472656 279.96875 383.539062 280.199219 C 383.472656 279.960938 383.429688 279.761719 383.484375 279.558594 Z M 655.265625 764.734375 C 655.265625 764.734375 642.566406 757.835938 621.261719 744.191406 C 610.609375 737.371094 597.816406 728.871094 583.445312 718.675781 C 569.089844 708.460938 553.070312 696.664062 536.183594 683.027344 C 526.433594 675.164062 516.324219 666.707031 506.027344 657.710938 C 505.484375 657.8125 504.863281 657.921875 504.164062 658.039062 C 502.726562 658.304688 500.980469 658.613281 498.976562 658.96875 C 496.96875 659.324219 494.722656 659.777344 492.21875 660.007812 C 489.734375 660.289062 487.035156 660.597656 484.175781 660.925781 C 481.339844 661.316406 478.292969 661.273438 475.171875 661.472656 C 473.605469 661.535156 472.015625 661.636719 470.40625 661.671875 C 468.792969 661.636719 467.164062 661.589844 465.519531 661.554688 C 463.871094 661.507812 462.21875 661.472656 460.550781 661.425781 C 458.898438 661.273438 457.230469 661.109375 455.578125 660.953125 C 453.910156 660.769531 452.246094 660.652344 450.601562 660.425781 C 448.960938 660.132812 447.324219 659.84375 445.707031 659.550781 C 442.449219 659.085938 439.355469 658.085938 436.316406 657.339844 C 434.808594 656.957031 433.378906 656.355469 431.941406 655.882812 C 430.53125 655.382812 429.121094 654.945312 427.820312 654.316406 C 426.511719 653.742188 425.238281 653.179688 424 652.632812 C 422.800781 652.023438 421.664062 651.378906 420.5625 650.792969 C 419.441406 650.230469 418.441406 649.574219 417.488281 648.945312 C 416.542969 648.308594 415.59375 647.789062 414.804688 647.144531 C 413.992188 646.535156 413.238281 645.960938 412.539062 645.421875 C 411.875 644.851562 411.265625 644.324219 410.71875 643.839844 C 409.644531 642.855469 408.835938 642.039062 408.335938 641.445312 C 407.808594 640.871094 407.5625 640.535156 407.5625 640.535156 C 407.5625 640.535156 407.816406 640.863281 408.355469 641.425781 C 408.871094 642.011719 409.699219 642.800781 410.78125 643.765625 C 411.347656 644.230469 411.964844 644.75 412.628906 645.304688 C 413.339844 645.824219 414.113281 646.378906 414.929688 646.972656 C 415.722656 647.589844 416.6875 648.101562 417.640625 648.710938 C 418.597656 649.3125 419.617188 649.9375 420.734375 650.476562 C 421.84375 651.03125 422.992188 651.648438 424.199219 652.222656 C 425.4375 652.742188 426.710938 653.269531 428.03125 653.816406 C 429.324219 654.417969 430.734375 654.808594 432.152344 655.28125 C 433.578125 655.71875 435.007812 656.285156 436.519531 656.628906 C 439.546875 657.304688 442.632812 658.230469 445.878906 658.613281 C 447.488281 658.867188 449.109375 659.125 450.738281 659.378906 C 452.375 659.570312 454.03125 659.652344 455.675781 659.789062 C 457.324219 659.914062 458.980469 660.035156 460.617188 660.160156 C 462.261719 660.160156 463.910156 660.171875 465.539062 660.171875 C 467.164062 660.171875 468.785156 660.179688 470.378906 660.179688 C 471.96875 660.117188 473.542969 659.980469 475.089844 659.878906 C 478.183594 659.613281 481.183594 659.597656 484.003906 659.140625 C 486.816406 658.757812 489.480469 658.394531 491.9375 658.058594 C 494.410156 657.785156 496.632812 657.277344 498.605469 656.882812 C 500.589844 656.492188 502.308594 656.148438 503.726562 655.855469 C 503.78125 655.847656 503.816406 655.835938 503.863281 655.828125 C 479.203125 634.144531 453.457031 609.257812 428.539062 581.195312 C 418.132812 569.394531 407.890625 557.027344 397.964844 544.136719 C 395.300781 545.519531 387.222656 549.425781 375.367188 552.402344 C 371.703125 553.265625 367.71875 554.15625 363.433594 554.730469 C 359.167969 555.351562 354.636719 555.789062 349.933594 555.886719 C 345.230469 556.078125 340.363281 555.789062 335.449219 555.367188 C 330.554688 554.769531 325.582031 554.050781 320.730469 552.785156 C 315.855469 551.644531 311.105469 550.027344 306.503906 548.277344 C 304.203125 547.394531 302 546.328125 299.78125 545.382812 C 297.605469 544.34375 295.503906 543.214844 293.414062 542.160156 C 291.367188 541.023438 289.410156 539.8125 287.464844 538.675781 C 285.527344 537.519531 283.753906 536.207031 281.949219 535.03125 C 280.148438 533.875 278.519531 532.558594 276.910156 531.335938 C 275.320312 530.097656 273.726562 528.96875 272.34375 527.714844 C 269.507812 525.273438 266.867188 523.070312 264.738281 520.90625 C 262.546875 518.792969 260.609375 516.992188 259.164062 515.351562 C 256.199219 512.15625 254.496094 510.335938 254.496094 510.335938 C 254.496094 510.335938 256.214844 512.140625 259.234375 515.28125 C 260.699219 516.898438 262.675781 518.675781 264.886719 520.75 C 267.050781 522.878906 269.707031 525.039062 272.570312 527.433594 C 273.972656 528.671875 275.582031 529.769531 277.183594 530.980469 C 278.804688 532.175781 280.441406 533.457031 282.261719 534.585938 C 284.0625 535.734375 285.855469 537.007812 287.792969 538.128906 C 289.746094 539.230469 291.710938 540.414062 293.769531 541.503906 C 295.859375 542.523438 297.960938 543.617188 300.136719 544.617188 C 302.347656 545.527344 304.546875 546.546875 306.839844 547.394531 C 311.433594 549.058594 316.15625 550.597656 321.003906 551.644531 C 325.816406 552.839844 330.746094 553.464844 335.585938 553.984375 C 340.445312 554.339844 345.238281 554.550781 349.878906 554.292969 C 354.507812 554.128906 358.976562 553.640625 363.167969 552.964844 C 367.371094 552.347656 371.285156 551.398438 374.875 550.5 C 382.035156 548.570312 387.8125 546.347656 391.742188 544.582031 C 393.933594 543.617188 395.527344 542.816406 396.527344 542.277344 C 389.824219 533.511719 383.265625 524.511719 376.921875 515.261719 C 360.777344 491.730469 345.992188 466.660156 333.523438 440.4375 C 327.289062 427.328125 321.640625 413.929688 316.675781 400.328125 C 316.417969 399.65625 316.164062 398.980469 315.910156 398.296875 C 315.144531 398.828125 314.117188 399.417969 312.800781 400.136719 C 312.035156 400.511719 311.1875 400.921875 310.269531 401.375 C 309.324219 401.75 308.296875 402.148438 307.203125 402.578125 C 306.121094 403.050781 304.902344 403.332031 303.636719 403.714844 C 302.375 404.078125 301.046875 404.488281 299.617188 404.699219 C 298.199219 404.953125 296.722656 405.269531 295.195312 405.488281 C 293.648438 405.617188 292.046875 405.746094 290.410156 405.882812 C 288.773438 406.097656 287.074219 405.9375 285.351562 405.9375 C 283.632812 405.84375 281.851562 405.992188 280.085938 405.679688 C 276.527344 405.234375 272.84375 404.90625 269.214844 403.914062 C 267.386719 403.488281 265.53125 403.113281 263.710938 402.621094 C 261.910156 402.019531 260.109375 401.421875 258.308594 400.820312 C 256.515625 400.171875 254.652344 399.738281 252.949219 398.917969 C 251.210938 398.160156 249.492188 397.40625 247.773438 396.660156 C 246.082031 395.886719 244.34375 395.222656 242.726562 394.375 C 241.113281 393.5 239.523438 392.644531 237.96875 391.800781 C 234.855469 390.078125 231.761719 388.566406 229.089844 386.703125 C 226.359375 384.925781 223.777344 383.25 221.390625 381.714844 C 218.964844 380.238281 216.980469 378.535156 215.117188 377.1875 C 213.277344 375.796875 211.667969 374.585938 210.347656 373.59375 C 207.710938 371.597656 206.199219 370.460938 206.199219 370.460938 C 206.199219 370.460938 207.730469 371.574219 210.414062 373.511719 C 211.75 374.484375 213.378906 375.660156 215.242188 377.015625 C 217.136719 378.316406 219.136719 379.992188 221.601562 381.414062 C 224.003906 382.90625 226.613281 384.527344 229.371094 386.238281 C 232.0625 388.046875 235.183594 389.488281 238.304688 391.144531 C 239.878906 391.953125 241.46875 392.78125 243.089844 393.621094 C 244.71875 394.429688 246.453125 395.046875 248.15625 395.785156 C 249.867188 396.496094 251.59375 397.214844 253.324219 397.933594 C 255.03125 398.707031 256.890625 399.109375 258.664062 399.71875 C 260.464844 400.273438 262.257812 400.839844 264.046875 401.394531 C 265.859375 401.847656 267.695312 402.167969 269.496094 402.566406 C 273.089844 403.46875 276.71875 403.714844 280.203125 404.085938 C 281.949219 404.359375 283.679688 404.179688 285.363281 404.234375 C 287.046875 404.207031 288.699219 404.332031 290.292969 404.097656 C 291.886719 403.933594 293.429688 403.777344 294.933594 403.625 C 296.414062 403.378906 297.835938 403.050781 299.199219 402.777344 C 300.582031 402.550781 301.847656 402.128906 303.054688 401.757812 C 304.257812 401.367188 305.429688 401.074219 306.457031 400.601562 C 307.496094 400.164062 308.46875 399.765625 309.371094 399.390625 C 310.234375 398.945312 311.023438 398.542969 311.742188 398.171875 C 313.125 397.386719 314.234375 396.714844 314.875 396.230469 C 314.945312 396.175781 315.007812 396.132812 315.082031 396.078125 C 313.082031 390.78125 311.089844 385.472656 309.105469 380.191406 C 306.414062 373.59375 303.730469 367.011719 301.046875 360.457031 C 291.785156 338.648438 281.550781 317.59375 270.589844 297.582031 C 270.363281 297.601562 270.015625 297.636719 269.5625 297.683594 C 268.667969 297.765625 267.378906 297.839844 265.75 297.910156 C 264.113281 297.964844 262.128906 298.03125 259.855469 298.003906 C 257.582031 297.984375 255.015625 297.929688 252.230469 297.738281 C 249.4375 297.636719 246.425781 297.265625 243.242188 296.972656 C 240.078125 296.519531 236.722656 296.136719 233.300781 295.472656 C 229.871094 294.808594 226.332031 294.160156 222.792969 293.195312 C 221.027344 292.730469 219.21875 292.339844 217.445312 291.804688 C 215.679688 291.257812 213.90625 290.703125 212.132812 290.148438 C 208.554688 289.136719 205.144531 287.632812 201.707031 286.386719 C 199.988281 285.769531 198.339844 285.011719 196.710938 284.257812 C 195.082031 283.511719 193.484375 282.773438 191.898438 282.046875 C 190.296875 281.363281 188.789062 280.550781 187.332031 279.734375 C 185.859375 278.933594 184.421875 278.140625 183.03125 277.382812 C 180.183594 275.9375 177.691406 274.226562 175.351562 272.722656 C 173.042969 271.175781 170.8125 269.921875 169.039062 268.527344 C 167.238281 267.164062 165.671875 265.96875 164.382812 264.988281 C 161.796875 263.03125 160.324219 261.910156 160.324219 261.910156 C 160.324219 261.910156 161.824219 263.003906 164.445312 264.90625 C 165.746094 265.859375 167.335938 267.015625 169.15625 268.34375 C 170.957031 269.710938 173.214844 270.921875 175.542969 272.414062 C 177.910156 273.871094 180.417969 275.519531 183.285156 276.902344 C 184.695312 277.640625 186.140625 278.394531 187.625 279.160156 C 189.089844 279.953125 190.609375 280.726562 192.210938 281.378906 C 193.800781 282.074219 195.410156 282.773438 197.046875 283.484375 C 198.675781 284.210938 200.324219 284.929688 202.050781 285.496094 C 205.492188 286.679688 208.902344 288.097656 212.476562 289.035156 C 214.25 289.546875 216.023438 290.066406 217.789062 290.574219 C 219.554688 291.074219 221.355469 291.421875 223.113281 291.847656 C 226.632812 292.742188 230.160156 293.304688 233.5625 293.898438 C 236.964844 294.488281 240.296875 294.808594 243.433594 295.191406 C 246.589844 295.417969 249.566406 295.734375 252.320312 295.773438 C 255.078125 295.917969 257.609375 295.910156 259.84375 295.890625 C 262.082031 295.871094 264.03125 295.773438 265.632812 295.691406 C 267.230469 295.582031 268.488281 295.492188 269.316406 295.390625 C 269.34375 295.390625 269.359375 295.382812 269.386719 295.382812 C 267.625 292.195312 265.839844 289.027344 264.046875 285.894531 C 250.621094 262.445312 236.191406 240.644531 221.628906 220.617188 C 210.886719 205.898438 199.988281 192.226562 189.1875 179.648438 C 188.996094 179.648438 188.769531 179.648438 188.507812 179.648438 C 187.515625 179.609375 186.050781 179.738281 184.203125 179.554688 C 183.277344 179.5 182.257812 179.429688 181.148438 179.355469 C 180.039062 179.21875 178.84375 179.074219 177.570312 178.917969 C 176.289062 178.78125 174.953125 178.507812 173.53125 178.261719 C 172.113281 178.027344 170.632812 177.71875 169.09375 177.351562 C 167.554688 177.015625 165.964844 176.644531 164.328125 176.179688 C 162.6875 175.742188 160.996094 175.277344 159.277344 174.730469 C 155.832031 173.683594 152.238281 172.457031 148.570312 171.0625 C 141.230469 168.285156 133.578125 164.917969 126.074219 161.242188 C 111.082031 153.875 96.707031 145.347656 86.175781 138.601562 C 75.632812 131.875 68.882812 126.976562 68.882812 126.976562 C 68.882812 126.976562 75.710938 131.757812 86.375 138.292969 C 97.007812 144.855469 111.519531 153.113281 126.582031 160.195312 C 134.117188 163.726562 141.792969 166.949219 149.125 169.5625 C 152.78125 170.878906 156.367188 172.046875 159.789062 173.011719 C 161.496094 173.53125 163.171875 173.957031 164.800781 174.359375 C 166.417969 174.785156 167.992188 175.121094 169.511719 175.433594 C 171.03125 175.769531 172.488281 176.042969 173.878906 176.242188 C 175.269531 176.460938 176.589844 176.707031 177.835938 176.816406 C 179.082031 176.941406 180.253906 177.070312 181.328125 177.1875 C 182.410156 177.234375 183.402344 177.289062 184.304688 177.335938 C 185.441406 177.417969 186.414062 177.390625 187.222656 177.371094 C 184.003906 173.640625 180.785156 169.996094 177.597656 166.476562 C 163.0625 150.464844 148.890625 136.554688 135.960938 124.648438 C 123.007812 112.777344 111.191406 102.972656 101.195312 95.261719 C 81.1875 79.824219 68.679688 72.496094 68.679688 72.496094 C 68.679688 72.496094 71.855469 74.234375 77.585938 77.847656 C 83.316406 81.464844 91.625 86.941406 101.785156 94.480469 C 111.957031 102.007812 123.992188 111.585938 137.226562 123.234375 C 150.472656 134.878906 164.863281 148.679688 179.644531 164.589844 C 194.417969 180.511719 209.628906 198.515625 224.550781 218.445312 C 224.738281 218.6875 224.921875 218.953125 225.105469 219.199219 C 225.167969 218.289062 225.242188 217.078125 225.195312 215.558594 C 225.230469 213.792969 225.078125 211.632812 224.914062 209.167969 C 224.65625 206.699219 224.339844 203.914062 223.839844 200.894531 C 223.339844 197.871094 222.703125 194.613281 221.9375 191.179688 C 221.15625 187.75 220.238281 184.152344 219.226562 180.4375 C 217.171875 173.039062 214.652344 165.21875 211.921875 157.472656 C 206.464844 141.96875 200.113281 126.796875 195.121094 115.515625 C 190.136719 104.238281 186.496094 96.863281 186.496094 96.863281 C 186.496094 96.863281 201.542969 126.167969 213.015625 157.070312 C 215.886719 164.789062 218.554688 172.59375 220.753906 180 C 221.847656 183.714844 222.828125 187.320312 223.675781 190.769531 C 224.511719 194.21875 225.214844 197.507812 225.777344 200.566406 C 226.332031 203.625 226.714844 206.445312 227.015625 208.96875 C 227.222656 211.488281 227.433594 213.691406 227.421875 215.53125 C 227.515625 217.359375 227.414062 218.796875 227.378906 219.789062 C 227.332031 220.773438 227.3125 221.292969 227.3125 221.292969 L 226.613281 221.238281 C 240.851562 240.398438 254.640625 261.390625 267.640625 283.820312 C 274.210938 295.144531 280.53125 306.851562 286.589844 318.867188 C 286.890625 317.984375 287.253906 316.855469 287.683594 315.507812 C 288.792969 311.894531 290.320312 306.6875 291.730469 300.332031 C 292.496094 297.164062 293.140625 293.695312 293.839844 290.039062 C 294.515625 286.371094 295.078125 282.472656 295.652344 278.441406 C 296.058594 274.390625 296.707031 270.21875 296.90625 265.953125 C 297.050781 263.8125 297.199219 261.664062 297.351562 259.507812 C 297.460938 257.339844 297.453125 255.164062 297.515625 252.996094 C 297.535156 250.824219 297.652344 248.648438 297.597656 246.488281 C 297.523438 244.324219 297.453125 242.164062 297.378906 240.027344 C 297.351562 235.738281 296.851562 231.550781 296.507812 227.492188 C 296.25 223.414062 295.53125 219.527344 294.996094 215.832031 C 294.703125 213.984375 294.421875 212.179688 294.160156 210.441406 C 293.777344 208.730469 293.402344 207.066406 293.050781 205.472656 C 292.3125 202.292969 291.757812 199.34375 291.058594 196.789062 C 290.292969 194.246094 289.628906 192.027344 289.082031 190.207031 C 287.992188 186.546875 287.371094 184.460938 287.371094 184.460938 C 287.371094 184.460938 288.027344 186.539062 289.183594 190.167969 C 289.757812 191.992188 290.457031 194.203125 291.265625 196.734375 C 292.003906 199.28125 292.613281 202.222656 293.402344 205.390625 C 293.785156 206.984375 294.1875 208.640625 294.597656 210.359375 C 294.894531 212.097656 295.207031 213.890625 295.523438 215.738281 C 296.132812 219.445312 296.914062 223.324219 297.242188 227.410156 C 297.660156 231.480469 298.226562 235.675781 298.324219 239.980469 C 298.433594 242.128906 298.542969 244.296875 298.644531 246.460938 C 298.742188 248.636719 298.664062 250.824219 298.679688 253.007812 C 298.652344 255.191406 298.699219 257.375 298.617188 259.550781 C 298.507812 261.726562 298.398438 263.894531 298.289062 266.042969 C 298.152344 270.347656 297.570312 274.542969 297.234375 278.632812 C 296.722656 282.699219 296.222656 286.632812 295.605469 290.339844 C 294.960938 294.042969 294.367188 297.558594 293.648438 300.75 C 292.332031 307.1875 290.875 312.476562 289.8125 316.164062 C 289.265625 318 288.820312 319.449219 288.484375 320.433594 C 288.253906 321.085938 288.109375 321.523438 288.035156 321.742188 C 294.03125 333.777344 299.761719 346.101562 305.175781 358.691406 C 307.894531 365.292969 310.707031 371.910156 313.382812 378.574219 C 315.929688 385.28125 318.484375 392 321.050781 398.746094 C 325.917969 412.207031 331.464844 425.488281 337.597656 438.496094 C 341.964844 447.753906 346.628906 456.867188 351.535156 465.824219 C 352.105469 464.6875 352.816406 463.292969 353.625 461.628906 C 356 456.792969 359.265625 449.800781 362.878906 441.28125 C 364.660156 437.011719 366.570312 432.378906 368.453125 427.417969 C 370.382812 422.476562 372.203125 417.1875 374.058594 411.699219 C 375.859375 406.199219 377.652344 400.492188 379.269531 394.628906 C 380.925781 388.785156 382.445312 382.796875 383.773438 376.761719 C 385.136719 370.734375 386.265625 364.664062 387.222656 358.65625 C 387.632812 355.640625 388.066406 352.65625 388.421875 349.699219 C 388.695312 346.730469 389.078125 343.808594 389.269531 340.921875 C 389.703125 335.140625 389.933594 329.542969 389.914062 324.238281 C 389.914062 318.929688 389.625 313.914062 389.25 309.289062 C 388.996094 306.988281 388.757812 304.785156 388.523438 302.679688 C 388.242188 300.597656 387.867188 298.621094 387.578125 296.765625 C 387.304688 294.898438 386.929688 293.167969 386.546875 291.585938 C 386.195312 290 385.867188 288.535156 385.566406 287.214844 C 384.882812 284.601562 384.230469 282.582031 383.835938 281.191406 C 383.753906 280.972656 383.710938 280.78125 383.664062 280.589844 C 383.726562 280.769531 383.792969 280.960938 383.835938 281.191406 C 384.238281 282.574219 384.902344 284.601562 385.59375 287.214844 C 385.902344 288.535156 386.238281 289.992188 386.601562 291.574219 C 386.992188 293.160156 387.367188 294.878906 387.648438 296.746094 C 387.949219 298.601562 388.320312 300.578125 388.621094 302.671875 C 388.867188 304.765625 389.113281 306.976562 389.378906 309.28125 C 389.769531 313.90625 390.078125 318.921875 390.105469 324.238281 C 390.152344 329.554688 389.941406 335.160156 389.53125 340.941406 C 389.351562 343.835938 388.988281 346.757812 388.722656 349.734375 C 388.375 352.703125 387.957031 355.6875 387.558594 358.710938 C 386.601562 364.71875 385.59375 370.824219 384.300781 376.878906 C 383.046875 382.933594 381.597656 388.957031 380.027344 394.839844 C 378.46875 400.730469 376.75 406.472656 375.011719 412.007812 C 371.464844 423.058594 367.789062 433.253906 364.378906 441.890625 C 359.25 454.835938 354.78125 464.292969 352.851562 468.226562 C 361.386719 483.609375 370.628906 498.53125 380.40625 512.875 C 396.363281 536.316406 413.695312 558.261719 431.496094 578.582031 C 431.570312 578.664062 431.640625 578.746094 431.707031 578.828125 C 433.050781 578.097656 435.199219 576.871094 437.984375 574.984375 C 440.382812 573.320312 443.277344 571.226562 446.359375 568.558594 C 449.4375 565.863281 452.820312 562.722656 456.148438 558.9375 C 459.453125 555.140625 462.898438 550.898438 465.992188 546.011719 C 469.078125 541.140625 472.105469 535.824219 474.542969 530 C 475.898438 527.148438 476.863281 524.082031 478.035156 521.050781 C 478.519531 519.496094 478.992188 517.9375 479.472656 516.363281 C 479.972656 514.796875 480.4375 513.214844 480.785156 511.59375 C 481.167969 509.972656 481.558594 508.363281 481.941406 506.730469 C 482.3125 505.101562 482.539062 503.4375 482.839844 501.789062 C 483.503906 498.492188 483.832031 495.125 484.203125 491.777344 L 484.488281 489.261719 L 484.613281 486.734375 L 484.867188 481.691406 C 485.042969 478.320312 484.878906 474.972656 484.894531 471.648438 C 484.832031 468.316406 484.515625 465.03125 484.339844 461.773438 C 484.140625 458.515625 483.632812 455.328125 483.296875 452.179688 C 483.003906 449.011719 482.359375 445.960938 481.867188 442.949219 C 481.367188 439.933594 480.855469 436.984375 480.164062 434.164062 C 479.527344 431.324219 478.910156 428.566406 478.308594 425.890625 C 477.589844 423.25 476.890625 420.699219 476.21875 418.25 C 474.960938 413.328125 473.433594 408.929688 472.167969 405 C 471.523438 403.03125 470.960938 401.183594 470.367188 399.5 C 469.75 397.824219 469.175781 396.285156 468.65625 394.902344 C 466.59375 389.339844 465.410156 386.164062 465.410156 386.164062 C 465.410156 386.164062 466.628906 389.332031 468.75 394.867188 C 469.285156 396.25 469.875 397.78125 470.515625 399.445312 C 471.125 401.128906 471.707031 402.96875 472.378906 404.925781 C 473.679688 408.847656 475.253906 413.234375 476.574219 418.152344 C 477.261719 420.601562 478 423.140625 478.746094 425.78125 C 479.375 428.445312 480.027344 431.207031 480.691406 434.046875 C 481.421875 436.867188 481.96875 439.816406 482.496094 442.828125 C 483.023438 445.851562 483.695312 448.910156 484.03125 452.078125 C 484.394531 455.238281 484.941406 458.433594 485.179688 461.699219 C 485.394531 464.96875 485.742188 468.273438 485.84375 471.613281 C 485.859375 474.964844 486.058594 478.332031 485.925781 481.71875 L 485.722656 486.796875 L 485.613281 489.34375 L 485.359375 491.886719 C 485.023438 495.273438 484.722656 498.65625 484.105469 502 C 483.8125 503.664062 483.59375 505.347656 483.242188 506.996094 C 482.867188 508.644531 482.496094 510.28125 482.128906 511.921875 C 481.792969 513.566406 481.339844 515.171875 480.855469 516.761719 C 480.382812 518.367188 479.921875 519.949219 479.457031 521.523438 C 478.300781 524.601562 477.355469 527.722656 476.007812 530.628906 C 473.597656 536.5625 470.585938 541.996094 467.492188 546.976562 C 464.410156 551.984375 460.945312 556.34375 457.625 560.238281 C 454.277344 564.136719 450.855469 567.375 447.742188 570.152344 C 444.625 572.917969 441.695312 575.09375 439.238281 576.824219 C 436.738281 578.5625 434.691406 579.792969 433.269531 580.59375 C 457.8125 608.546875 483.148438 633.425781 507.429688 655.117188 C 507.921875 655.019531 508.195312 654.964844 508.195312 654.964844 L 508.410156 655.992188 C 518.417969 664.902344 528.253906 673.289062 537.75 681.105469 C 554.488281 694.824219 570.152344 707.023438 584.34375 717.4375 C 598.507812 727.867188 611.136719 736.589844 621.652344 743.589844 C 642.691406 757.609375 655.265625 764.734375 655.265625 764.734375 "/>
</g>
</svg>
