<?xml version="1.0" encoding="UTF-8"?>
<svg xmlns="http://www.w3.org/2000/svg" xmlns:xlink="http://www.w3.org/1999/xlink" width="810pt" height="809.999993pt" viewBox="0 0 810 809.999993" version="1.2">
<defs>
<clipPath id="clip1">
  <path d="M 20.054688 20.054688 L 787.304688 20.054688 L 787.304688 787.304688 L 20.054688 787.304688 Z M 20.054688 20.054688 "/>
</clipPath>
</defs>
<g id="surface1">
<g clip-path="url(#clip1)" clip-rule="nonzero">
<path style=" stroke:none;fill-rule:nonzero;fill:rgb(30.589294%,93.728638%,46.669006%);fill-opacity:1;" d="M 670.546875 20.054688 C 606.261719 20.054688 553.792969 72.523438 553.792969 136.808594 C 553.792969 167.546875 565.875 195.503906 585.425781 216.394531 L 445.800781 387 L 252.230469 387 C 244.070312 330.582031 195.417969 286.921875 136.808594 286.921875 C 72.523438 286.921875 20.054688 339.394531 20.054688 403.679688 C 20.054688 467.964844 72.523438 520.433594 136.808594 520.433594 C 195.417969 520.433594 244.070312 476.773438 252.230469 420.359375 L 445.410156 420.359375 L 579.398438 597.835938 C 563.410156 617.820312 553.792969 643.082031 553.792969 670.546875 C 553.792969 734.832031 606.261719 787.304688 670.546875 787.304688 C 734.832031 787.304688 787.304688 734.832031 787.304688 670.546875 C 787.304688 606.261719 734.832031 553.792969 670.546875 553.792969 C 645.785156 553.792969 622.828125 561.652344 603.894531 574.902344 L 474.925781 404.101562 L 611.421875 237.242188 C 628.796875 247.527344 648.972656 253.5625 670.546875 253.5625 C 734.832031 253.5625 787.304688 201.09375 787.304688 136.808594 C 787.304688 72.523438 734.832031 20.054688 670.546875 20.054688 Z M 670.546875 53.414062 C 716.804688 53.414062 753.945312 90.550781 753.945312 136.808594 C 753.945312 183.066406 716.804688 220.207031 670.546875 220.207031 C 624.292969 220.207031 587.152344 183.066406 587.152344 136.808594 C 587.152344 90.550781 624.292969 53.414062 670.546875 53.414062 Z M 136.808594 320.28125 C 183.066406 320.28125 220.207031 357.421875 220.207031 403.679688 C 220.207031 449.933594 183.066406 487.074219 136.808594 487.074219 C 90.550781 487.074219 53.410156 449.933594 53.410156 403.679688 C 53.410156 357.421875 90.550781 320.28125 136.808594 320.28125 Z M 670.546875 587.152344 C 716.804688 587.152344 753.945312 624.292969 753.945312 670.546875 C 753.945312 716.804688 716.804688 753.945312 670.546875 753.945312 C 624.292969 753.945312 587.152344 716.804688 587.152344 670.546875 C 587.152344 624.292969 624.292969 587.152344 670.546875 587.152344 Z M 670.546875 587.152344 "/>
</g>
</g>
</svg>
